
<svg width="32" height="32" viewBox="0 0 32 32" fill="none" xmlns="http://www.w3.org/2000/svg">
  <rect width="32" height="32" rx="8" fill="#000000"/>
  <path d="M16 6C10.4772 6 6 10.4772 6 16C6 21.5228 10.4772 26 16 26C21.5228 26 26 21.5228 26 16C26 10.4772 21.5228 6 16 6ZM16 8C20.4183 8 24 11.5817 24 16C24 20.4183 20.4183 24 16 24C11.5817 24 8 20.4183 8 16C8 11.5817 11.5817 8 16 8Z" fill="url(#paint0_linear)"/>
  <path d="M16 9L18.5 14.5H23L19.5 18L21 23L16 20L11 23L12.5 18L9 14.5H13.5L16 9Z" fill="url(#paint1_linear)"/>
  <defs>
    <linearGradient id="paint0_linear" x1="6" y1="6" x2="26" y2="26" gradientUnits="userSpaceOnUse">
      <stop stop-color="#E50914"/>
      <stop offset="1" stop-color="#FFD700"/>
    </linearGradient>
    <linearGradient id="paint1_linear" x1="9" y1="9" x2="23" y2="23" gradientUnits="userSpaceOnUse">
      <stop stop-color="#E50914"/>
      <stop offset="1" stop-color="#FFD700"/>
    </linearGradient>
  </defs>
</svg>
